# xmcd CD database file
#
# Track frame offsets:
#	150
#	19237
#	39227
#	64600
#	81780
#	98457
#	118272
#	135687
#	158192
#	183472
#	206112
#	220987
#	241905
#	264027
#
# Disc length: 3773 seconds
#
# Revision: 0
# Processed by: cddbd v1.5.2PL0 Copyright (c) Steve Scherf et al.
# Submitted via: CDex 1.70beta2
#
DISCID=ba0ebb0e
DTITLE=Jean Shy - Ready For Love
DYEAR=1993
DGENRE=Jazz
TTITLE0=Ready For Love (Radio Edit)
TTITLE1=What A Wonderful Time In My Life 
TTITLE2=One day
TTITLE3=I Wouldn't Wanna Be You
TTITLE4=We Like The Same Thangs
TTITLE5=Put Back My Heart The Way You Found It
TTITLE6=Jesus for me
TTITLE7=Living the blues
TTITLE8=Ready For Love ( Long Version)
TTITLE9=Amazing grace
TTITLE10=What A Wonderful World
TTITLE11=Corner of your mind
TTITLE12=Cry Uncle
TTITLE13=Rhat's All He Wrote
EXTD=YEAR: 1993
EXTT0=
EXTT1=
EXTT2=
EXTT3=
EXTT4=
EXTT5=
EXTT6=
EXTT7=
EXTT8=
EXTT9=
EXTT10=
EXTT11=
EXTT12=
EXTT13=
PLAYORDER=
